solid OpenSCAD_Model
  facet normal 1 0 1.22465e-16
    outer loop
      vertex 6 -2.5 -2.93915e-15
      vertex 6 1 -2.93915e-15
      vertex 6 1 24
    endloop
  endfacet
  facet normal 1 0 1.22465e-16
    outer loop
      vertex 6 -2.5 24
      vertex 6 -2.5 -2.93915e-15
      vertex 6 1 24
    endloop
  endfacet
  facet normal 0 -1 0
    outer loop
      vertex 6 -2.5 -2.93915e-15
      vertex 6 -2.5 24
      vertex 3.36969 -2.5 24
    endloop
  endfacet
  facet normal 0 -1 0
    outer loop
      vertex 3.36969 -2.5 -3.26127e-15
      vertex 6 -2.5 -2.93915e-15
      vertex 3.36969 -2.5 24
    endloop
  endfacet
  facet normal -1.22465e-16 0 1
    outer loop
      vertex 3.39787 -2.4687 24
      vertex 6 -2.5 24
      vertex 6 1 24
    endloop
  endfacet
  facet normal -1.22465e-16 0 1
    outer loop
      vertex 3.83689 -1.70829 24
      vertex 3.39787 -2.4687 24
      vertex 6 1 24
    endloop
  endfacet
  facet normal -1.22465e-16 0 1
    outer loop
      vertex 1.90526 13.1 24
      vertex 2.2 12 24
      vertex 1.8541 15.7063 24
    endloop
  endfacet
  facet normal -1.22465e-16 0 1
    outer loop
      vertex 1.90526 10.9 24
      vertex 2.1 3.63731 24
      vertex 2.81035 3.12121 24
    endloop
  endfacet
  facet normal -1.22465e-16 0 1
    outer loop
      vertex 1.90526 10.9 24
      vertex 1.1 10.0947 24
      vertex 2.1 3.63731 24
    endloop
  endfacet
  facet normal -1.22465e-16 0 1
    outer loop
      vertex 3.83689 1.70829 24
      vertex 5.86889 11.2475 24
      vertex 5.48127 12.4404 24
    endloop
  endfacet
  facet normal -1.22465e-16 0 1
    outer loop
      vertex 3.83689 1.70829 24
      vertex 6 10 24
      vertex 5.86889 11.2475 24
    endloop
  endfacet
  facet normal -1.22465e-16 0 1
    outer loop
      vertex 3.39787 2.4687 24
      vertex 4.8541 13.5267 24
      vertex 4.01478 14.4589 24
    endloop
  endfacet
  facet normal -1.22465e-16 0 1
    outer loop
      vertex 3.83689 1.70829 24
      vertex 4.10822 0.873229 24
      vertex 6 10 24
    endloop
  endfacet
  facet normal -1.22465e-16 0 1
    outer loop
      vertex 1.1 10.0947 24
      vertex 1.29787 3.99444 24
      vertex 2.1 3.63731 24
    endloop
  endfacet
  facet normal -1.22465e-16 0 1
    outer loop
      vertex 2.81035 3.12121 24
      vertex 3.39787 2.4687 24
      vertex 3 15.1962 24
    endloop
  endfacet
  facet normal -1.22465e-16 0 1
    outer loop
      vertex 0.43902 4.17699 24
      vertex -1.90526 10.9 24
      vertex -4.01478 14.4589 24
    endloop
  endfacet
  facet normal -1.22465e-16 0 1
    outer loop
      vertex -0.43902 4.17699 24
      vertex 0.43902 4.17699 24
      vertex -4.8541 13.5267 24
    endloop
  endfacet
  facet normal -1.22465e-16 0 1
    outer loop
      vertex -1.29787 3.99444 24
      vertex -5.48127 12.4404 24
      vertex -5.86889 11.2475 24
    endloop
  endfacet
  facet normal -1.22465e-16 0 1
    outer loop
      vertex -2.1 3.63731 24
      vertex -1.29787 3.99444 24
      vertex -6 10 24
    endloop
  endfacet
  facet normal -1.22465e-16 0 1
    outer loop
      vertex -1.29787 3.99444 24
      vertex -0.43902 4.17699 24
      vertex -5.48127 12.4404 24
    endloop
  endfacet
  facet normal -1.22465e-16 0 1
    outer loop
      vertex -6 -2.5 24
      vertex -3.36969 -2.5 24
      vertex -3.39787 -2.4687 24
    endloop
  endfacet
  facet normal -1.22465e-16 0 1
    outer loop
      vertex -6 -2.5 24
      vertex -3.39787 -2.4687 24
      vertex -3.83689 -1.70829 24
    endloop
  endfacet
  facet normal -1.22465e-16 0 1
    outer loop
      vertex -6 -2.5 24
      vertex -4.10822 -0.873229 24
      vertex -6 10 24
    endloop
  endfacet
  facet normal -1.22465e-16 0 1
    outer loop
      vertex -6 -2.5 24
      vertex -3.83689 -1.70829 24
      vertex -4.10822 -0.873229 24
    endloop
  endfacet
  facet normal -1.22465e-16 0 1
    outer loop
      vertex -4.10822 -0.873229 24
      vertex -4.2 0 24
      vertex -6 10 24
    endloop
  endfacet
  facet normal -1.22465e-16 0 1
    outer loop
      vertex -3.83689 1.70829 24
      vertex -3.39787 2.4687 24
      vertex -6 10 24
    endloop
  endfacet
  facet normal -1.22465e-16 0 1
    outer loop
      vertex -3.39787 2.4687 24
      vertex -2.81035 3.12121 24
      vertex -6 10 24
    endloop
  endfacet
  facet normal -1.22465e-16 0 1
    outer loop
      vertex -2.81035 3.12121 24
      vertex -2.1 3.63731 24
      vertex -6 10 24
    endloop
  endfacet
  facet normal -1.22465e-16 0 1
    outer loop
      vertex -6 10 24
      vertex -1.29787 3.99444 24
      vertex -5.86889 11.2475 24
    endloop
  endfacet
  facet normal -1.22465e-16 0 1
    outer loop
      vertex -5.48127 12.4404 24
      vertex -0.43902 4.17699 24
      vertex -4.8541 13.5267 24
    endloop
  endfacet
  facet normal -1.22465e-16 0 1
    outer loop
      vertex -4.8541 13.5267 24
      vertex 0.43902 4.17699 24
      vertex -4.01478 14.4589 24
    endloop
  endfacet
  facet normal -1.22465e-16 0 1
    outer loop
      vertex -2.2 12 24
      vertex -1.90526 13.1 24
      vertex -3 15.1962 24
    endloop
  endfacet
  facet normal -1.22465e-16 0 1
    outer loop
      vertex -2.93915e-15 14.2 24
      vertex 1.1 13.9053 24
      vertex 0.627171 15.9671 24
    endloop
  endfacet
  facet normal -1.22465e-16 0 1
    outer loop
      vertex 2.2 12 24
      vertex 1.90526 10.9 24
      vertex 2.81035 3.12121 24
    endloop
  endfacet
  facet normal -1.22465e-16 0 1
    outer loop
      vertex 3 15.1962 24
      vertex 3.39787 2.4687 24
      vertex 4.01478 14.4589 24
    endloop
  endfacet
  facet normal -1.22465e-16 0 1
    outer loop
      vertex 4.8541 13.5267 24
      vertex 3.83689 1.70829 24
      vertex 5.48127 12.4404 24
    endloop
  endfacet
  facet normal -1.22465e-16 0 1
    outer loop
      vertex 6 10 24
      vertex 4.10822 0.873229 24
      vertex 6 1 24
    endloop
  endfacet
  facet normal -1.22465e-16 0 1
    outer loop
      vertex 4.10822 0.873229 24
      vertex 4.2 0 24
      vertex 6 1 24
    endloop
  endfacet
  facet normal -1.22465e-16 0 1
    outer loop
      vertex 4.2 0 24
      vertex 4.10822 -0.873229 24
      vertex 6 1 24
    endloop
  endfacet
  facet normal -1.22465e-16 0 1
    outer loop
      vertex 4.10822 -0.873229 24
      vertex 3.83689 -1.70829 24
      vertex 6 1 24
    endloop
  endfacet
  facet normal -1.22465e-16 0 1
    outer loop
      vertex 3.36969 -2.5 24
      vertex 6 -2.5 24
      vertex 3.39787 -2.4687 24
    endloop
  endfacet
  facet normal -1.22465e-16 0 1
    outer loop
      vertex 1.8541 15.7063 24
      vertex 2.2 12 24
      vertex 3 15.1962 24
    endloop
  endfacet
  facet normal -1.22465e-16 0 1
    outer loop
      vertex 3.39787 2.4687 24
      vertex 3.83689 1.70829 24
      vertex 4.8541 13.5267 24
    endloop
  endfacet
  facet normal -1.22465e-16 0 1
    outer loop
      vertex -2.93915e-15 9.8 24
      vertex -1.1 10.0947 24
      vertex 1.29787 3.99444 24
    endloop
  endfacet
  facet normal -1.22465e-16 0 1
    outer loop
      vertex 1.1 13.9053 24
      vertex 1.8541 15.7063 24
      vertex 0.627171 15.9671 24
    endloop
  endfacet
  facet normal -1.22465e-16 0 1
    outer loop
      vertex 1.1 13.9053 24
      vertex 1.90526 13.1 24
      vertex 1.8541 15.7063 24
    endloop
  endfacet
  facet normal -1.22465e-16 0 1
    outer loop
      vertex 2.81035 3.12121 24
      vertex 3 15.1962 24
      vertex 2.2 12 24
    endloop
  endfacet
  facet normal -1.22465e-16 0 1
    outer loop
      vertex -1.90526 13.1 24
      vertex -1.1 13.9053 24
      vertex -1.8541 15.7063 24
    endloop
  endfacet
  facet normal -1.22465e-16 0 1
    outer loop
      vertex -1.1 13.9053 24
      vertex -2.93915e-15 14.2 24
      vertex -0.627171 15.9671 24
    endloop
  endfacet
  facet normal -1.22465e-16 0 1
    outer loop
      vertex -4.01478 14.4589 24
      vertex -2.2 12 24
      vertex -3 15.1962 24
    endloop
  endfacet
  facet normal -1.22465e-16 0 1
    outer loop
      vertex -4.01478 14.4589 24
      vertex -1.90526 10.9 24
      vertex -2.2 12 24
    endloop
  endfacet
  facet normal -1.22465e-16 0 1
    outer loop
      vertex -3 15.1962 24
      vertex -1.90526 13.1 24
      vertex -1.8541 15.7063 24
    endloop
  endfacet
  facet normal -1.22465e-16 0 1
    outer loop
      vertex -1.1 10.0947 24
      vertex -1.90526 10.9 24
      vertex 0.43902 4.17699 24
    endloop
  endfacet
  facet normal -1.22465e-16 0 1
    outer loop
      vertex -1.8541 15.7063 24
      vertex -1.1 13.9053 24
      vertex -0.627171 15.9671 24
    endloop
  endfacet
  facet normal -1.22465e-16 0 1
    outer loop
      vertex -0.627171 15.9671 24
      vertex -2.93915e-15 14.2 24
      vertex 0.627171 15.9671 24
    endloop
  endfacet
  facet normal -1.22465e-16 0 1
    outer loop
      vertex 1.1 10.0947 24
      vertex -2.93915e-15 9.8 24
      vertex 1.29787 3.99444 24
    endloop
  endfacet
  facet normal -1.22465e-16 0 1
    outer loop
      vertex -4.2 0 24
      vertex -4.10822 0.873229 24
      vertex -6 10 24
    endloop
  endfacet
  facet normal -1.22465e-16 0 1
    outer loop
      vertex -4.10822 0.873229 24
      vertex -3.83689 1.70829 24
      vertex -6 10 24
    endloop
  endfacet
  facet normal -1.22465e-16 0 1
    outer loop
      vertex 0.43902 4.17699 24
      vertex 1.29787 3.99444 24
      vertex -1.1 10.0947 24
    endloop
  endfacet
  facet normal 1.22465e-16 0 -1
    outer loop
      vertex 0 14.2 -3.67394e-15
      vertex -6 33.9343 -4.40873e-15
      vertex 1.1 13.9053 -3.53923e-15
    endloop
  endfacet
  facet normal 1.22465e-16 0 -1
    outer loop
      vertex 6 -2.5 -2.93915e-15
      vertex 3.39787 -2.4687 -3.25782e-15
      vertex 6 1 -2.93915e-15
    endloop
  endfacet
  facet normal 1.22465e-16 0 -1
    outer loop
      vertex 6 -2.5 -2.93915e-15
      vertex 3.36969 -2.5 -3.26127e-15
      vertex 3.39787 -2.4687 -3.25782e-15
    endloop
  endfacet
  facet normal 1.22465e-16 0 -1
    outer loop
      vertex 2.2 12 -3.40452e-15
      vertex 6 1 -2.93915e-15
      vertex 1.90526 10.9 -3.44061e-15
    endloop
  endfacet
  facet normal 1.22465e-16 0 -1
    outer loop
      vertex 6 1 -2.93915e-15
      vertex 3.83689 -1.70829 -3.20406e-15
      vertex 4.10822 -0.873229 -3.17083e-15
    endloop
  endfacet
  facet normal 1.22465e-16 0 -1
    outer loop
      vertex 4.10822 -0.873229 -3.17083e-15
      vertex 4.2 0 -3.15959e-15
      vertex 6 1 -2.93915e-15
    endloop
  endfacet
  facet normal 1.22465e-16 0 -1
    outer loop
      vertex 4.2 0 -3.15959e-15
      vertex 4.10822 0.873229 -3.17083e-15
      vertex 6 1 -2.93915e-15
    endloop
  endfacet
  facet normal 1.22465e-16 0 -1
    outer loop
      vertex 4.10822 0.873229 -3.17083e-15
      vertex 3.83689 1.70829 -3.20406e-15
      vertex 6 1 -2.93915e-15
    endloop
  endfacet
  facet normal 1.22465e-16 0 -1
    outer loop
      vertex 3.83689 1.70829 -3.20406e-15
      vertex 3.39787 2.4687 -3.25782e-15
      vertex 6 1 -2.93915e-15
    endloop
  endfacet
  facet normal 1.22465e-16 0 -1
    outer loop
      vertex 3.39787 2.4687 -3.25782e-15
      vertex 2.81035 3.12121 -3.32977e-15
      vertex 6 1 -2.93915e-15
    endloop
  endfacet
  facet normal 1.22465e-16 0 -1
    outer loop
      vertex 2.81035 3.12121 -3.32977e-15
      vertex 2.1 3.63731 -3.41676e-15
      vertex 6 1 -2.93915e-15
    endloop
  endfacet
  facet normal 1.22465e-16 0 -1
    outer loop
      vertex 1.1 13.9053 -3.53923e-15
      vertex -4.74566 33.9343 -4.25512e-15
      vertex 1.90526 13.1 -3.44061e-15
    endloop
  endfacet
  facet normal 1.22465e-16 0 -1
    outer loop
      vertex -1.90526 13.1 -3.90727e-15
      vertex -6 33.9343 -4.40873e-15
      vertex -1.1 13.9053 -3.80865e-15
    endloop
  endfacet
  facet normal 1.22465e-16 0 -1
    outer loop
      vertex -1.1 10.0947 -3.80865e-15
      vertex -0.43902 4.17699 -3.7277e-15
      vertex -1.90526 10.9 -3.90727e-15
    endloop
  endfacet
  facet normal 1.22465e-16 0 -1
    outer loop
      vertex -2.1 3.63731 -3.93112e-15
      vertex -6 33.9343 -4.40873e-15
      vertex -1.29787 3.99444 -3.83288e-15
    endloop
  endfacet
  facet normal 1.22465e-16 0 -1
    outer loop
      vertex -2.81035 3.12121 -4.01811e-15
      vertex -6 33.9343 -4.40873e-15
      vertex -2.1 3.63731 -3.93112e-15
    endloop
  endfacet
  facet normal 1.22465e-16 0 -1
    outer loop
      vertex -3.39787 2.4687 -4.09006e-15
      vertex -6 33.9343 -4.40873e-15
      vertex -2.81035 3.12121 -4.01811e-15
    endloop
  endfacet
  facet normal 1.22465e-16 0 -1
    outer loop
      vertex -4.10822 0.873229 -4.17705e-15
      vertex -6 -2.5 -4.40873e-15
      vertex -3.83689 1.70829 -4.14382e-15
    endloop
  endfacet
  facet normal 1.22465e-16 0 -1
    outer loop
      vertex -4.2 0 -4.18829e-15
      vertex -6 -2.5 -4.40873e-15
      vertex -4.10822 0.873229 -4.17705e-15
    endloop
  endfacet
  facet normal 1.22465e-16 0 -1
    outer loop
      vertex -4.10822 -0.873229 -4.17705e-15
      vertex -6 -2.5 -4.40873e-15
      vertex -4.2 0 -4.18829e-15
    endloop
  endfacet
  facet normal 1.22465e-16 0 -1
    outer loop
      vertex -3.83689 -1.70829 -4.14382e-15
      vertex -6 -2.5 -4.40873e-15
      vertex -4.10822 -0.873229 -4.17705e-15
    endloop
  endfacet
  facet normal 1.22465e-16 0 -1
    outer loop
      vertex -3.39787 -2.4687 -4.09006e-15
      vertex -3.36969 -2.5 -4.08661e-15
      vertex -6 -2.5 -4.40873e-15
    endloop
  endfacet
  facet normal 1.22465e-16 0 -1
    outer loop
      vertex -3.39787 -2.4687 -4.09006e-15
      vertex -6 -2.5 -4.40873e-15
      vertex -3.83689 -1.70829 -4.14382e-15
    endloop
  endfacet
  facet normal 1.22465e-16 0 -1
    outer loop
      vertex -3.83689 1.70829 -4.14382e-15
      vertex -6 -2.5 -4.40873e-15
      vertex -6 33.9343 -4.40873e-15
    endloop
  endfacet
  facet normal 1.22465e-16 0 -1
    outer loop
      vertex -3.83689 1.70829 -4.14382e-15
      vertex -6 33.9343 -4.40873e-15
      vertex -3.39787 2.4687 -4.09006e-15
    endloop
  endfacet
  facet normal 1.22465e-16 0 -1
    outer loop
      vertex 6 1 -2.93915e-15
      vertex -4.74566 33.9343 -4.25512e-15
      vertex -2.2918 33.4127 -3.9546e-15
    endloop
  endfacet
  facet normal 1.22465e-16 0 -1
    outer loop
      vertex 6 1 -2.93915e-15
      vertex -2.2918 33.4127 -3.9546e-15
      vertex 0 32.3923 -3.67394e-15
    endloop
  endfacet
  facet normal 1.22465e-16 0 -1
    outer loop
      vertex 6 1 -2.93915e-15
      vertex 0 32.3923 -3.67394e-15
      vertex 2.02957 30.9177 -3.42539e-15
    endloop
  endfacet
  facet normal 1.22465e-16 0 -1
    outer loop
      vertex 6 1 -2.93915e-15
      vertex 2.02957 30.9177 -3.42539e-15
      vertex 3.7082 29.0534 -3.21982e-15
    endloop
  endfacet
  facet normal 1.22465e-16 0 -1
    outer loop
      vertex 6 1 -2.93915e-15
      vertex 3.7082 29.0534 -3.21982e-15
      vertex 4.96254 26.8808 -3.0662e-15
    endloop
  endfacet
  facet normal 1.22465e-16 0 -1
    outer loop
      vertex 6 1 -2.93915e-15
      vertex 4.96254 26.8808 -3.0662e-15
      vertex 5.73777 24.4949 -2.97127e-15
    endloop
  endfacet
  facet normal 1.22465e-16 0 -1
    outer loop
      vertex 6 1 -2.93915e-15
      vertex 5.73777 24.4949 -2.97127e-15
      vertex 6 22 -2.93915e-15
    endloop
  endfacet
  facet normal 1.22465e-16 0 -1
    outer loop
      vertex -1.1 13.9053 -3.80865e-15
      vertex -6 33.9343 -4.40873e-15
      vertex 0 14.2 -3.67394e-15
    endloop
  endfacet
  facet normal 1.22465e-16 0 -1
    outer loop
      vertex 2.1 3.63731 -3.41676e-15
      vertex 1.90526 10.9 -3.44061e-15
      vertex 6 1 -2.93915e-15
    endloop
  endfacet
  facet normal 1.22465e-16 0 -1
    outer loop
      vertex 1.1 13.9053 -3.53923e-15
      vertex -6 33.9343 -4.40873e-15
      vertex -4.74566 33.9343 -4.25512e-15
    endloop
  endfacet
  facet normal 1.22465e-16 0 -1
    outer loop
      vertex 6 1 -2.93915e-15
      vertex 2.2 12 -3.40452e-15
      vertex 1.90526 13.1 -3.44061e-15
    endloop
  endfacet
  facet normal 1.22465e-16 0 -1
    outer loop
      vertex 6 1 -2.93915e-15
      vertex 1.90526 13.1 -3.44061e-15
      vertex -4.74566 33.9343 -4.25512e-15
    endloop
  endfacet
  facet normal 1.22465e-16 0 -1
    outer loop
      vertex 0 9.8 -3.67394e-15
      vertex 0.43902 4.17699 -3.62018e-15
      vertex -1.1 10.0947 -3.80865e-15
    endloop
  endfacet
  facet normal 1.22465e-16 0 -1
    outer loop
      vertex -1.29787 3.99444 -3.83288e-15
      vertex -6 33.9343 -4.40873e-15
      vertex -2.2 12 -3.94336e-15
    endloop
  endfacet
  facet normal 1.22465e-16 0 -1
    outer loop
      vertex -1.29787 3.99444 -3.83288e-15
      vertex -2.2 12 -3.94336e-15
      vertex -0.43902 4.17699 -3.7277e-15
    endloop
  endfacet
  facet normal 1.22465e-16 0 -1
    outer loop
      vertex -1.1 10.0947 -3.80865e-15
      vertex 0.43902 4.17699 -3.62018e-15
      vertex -0.43902 4.17699 -3.7277e-15
    endloop
  endfacet
  facet normal 1.22465e-16 0 -1
    outer loop
      vertex -2.2 12 -3.94336e-15
      vertex -1.90526 10.9 -3.90727e-15
      vertex -0.43902 4.17699 -3.7277e-15
    endloop
  endfacet
  facet normal 1.22465e-16 0 -1
    outer loop
      vertex -2.2 12 -3.94336e-15
      vertex -6 33.9343 -4.40873e-15
      vertex -1.90526 13.1 -3.90727e-15
    endloop
  endfacet
  facet normal 1.22465e-16 0 -1
    outer loop
      vertex 0 9.8 -3.67394e-15
      vertex 1.29787 3.99444 -3.515e-15
      vertex 0.43902 4.17699 -3.62018e-15
    endloop
  endfacet
  facet normal 1.22465e-16 0 -1
    outer loop
      vertex 1.1 10.0947 -3.53923e-15
      vertex 2.1 3.63731 -3.41676e-15
      vertex 0 9.8 -3.67394e-15
    endloop
  endfacet
  facet normal 1.22465e-16 0 -1
    outer loop
      vertex 1.29787 3.99444 -3.515e-15
      vertex 0 9.8 -3.67394e-15
      vertex 2.1 3.63731 -3.41676e-15
    endloop
  endfacet
  facet normal 1.22465e-16 0 -1
    outer loop
      vertex 2.1 3.63731 -3.41676e-15
      vertex 1.1 10.0947 -3.53923e-15
      vertex 1.90526 10.9 -3.44061e-15
    endloop
  endfacet
  facet normal 1.22465e-16 0 -1
    outer loop
      vertex 3.83689 -1.70829 -3.20406e-15
      vertex 6 1 -2.93915e-15
      vertex 3.39787 -2.4687 -3.25782e-15
    endloop
  endfacet
  facet normal 1 0 1.22465e-16
    outer loop
      vertex 6 20.2026 4.55
      vertex 6 22 -2.93915e-15
      vertex 6 22 8
    endloop
  endfacet
  facet normal 1 0 1.22465e-16
    outer loop
      vertex 6 10 24
      vertex 6 1 -2.93915e-15
      vertex 6 10 8
    endloop
  endfacet
  facet normal 1 0 1.22465e-16
    outer loop
      vertex 6 10 8
      vertex 6 1 -2.93915e-15
      vertex 6 22 8
    endloop
  endfacet
  facet normal 1 0 1.22465e-16
    outer loop
      vertex 6 1 24
      vertex 6 1 -2.93915e-15
      vertex 6 10 24
    endloop
  endfacet
  facet normal 1 0 1.22465e-16
    outer loop
      vertex 6 20.35 4
      vertex 6 20.2026 3.45
      vertex 6 22 -2.93915e-15
    endloop
  endfacet
  facet normal 1 0 1.22465e-16
    outer loop
      vertex 6 1 -2.93915e-15
      vertex 6 18.7 4.95263
      vertex 6 22 8
    endloop
  endfacet
  facet normal 1 0 1.22465e-16
    outer loop
      vertex 6 1 -2.93915e-15
      vertex 6 18.2974 4.55
      vertex 6 18.7 4.95263
    endloop
  endfacet
  facet normal 1 0 1.22465e-16
    outer loop
      vertex 6 19.25 5.1
      vertex 6 19.8 4.95263
      vertex 6 22 8
    endloop
  endfacet
  facet normal 1 0 1.22465e-16
    outer loop
      vertex 6 19.8 4.95263
      vertex 6 20.2026 4.55
      vertex 6 22 8
    endloop
  endfacet
  facet normal 1 0 1.22465e-16
    outer loop
      vertex 6 20.35 4
      vertex 6 22 -2.93915e-15
      vertex 6 20.2026 4.55
    endloop
  endfacet
  facet normal 1 0 1.22465e-16
    outer loop
      vertex 6 20.2026 3.45
      vertex 6 19.8 3.04737
      vertex 6 22 -2.93915e-15
    endloop
  endfacet
  facet normal 1 0 1.22465e-16
    outer loop
      vertex 6 19.8 3.04737
      vertex 6 19.25 2.9
      vertex 6 22 -2.93915e-15
    endloop
  endfacet
  facet normal 1 0 1.22465e-16
    outer loop
      vertex 6 1 -2.93915e-15
      vertex 6 22 -2.93915e-15
      vertex 6 19.25 2.9
    endloop
  endfacet
  facet normal 1 0 1.22465e-16
    outer loop
      vertex 6 1 -2.93915e-15
      vertex 6 19.25 2.9
      vertex 6 18.7 3.04737
    endloop
  endfacet
  facet normal 1 0 1.22465e-16
    outer loop
      vertex 6 1 -2.93915e-15
      vertex 6 18.7 3.04737
      vertex 6 18.2974 3.45
    endloop
  endfacet
  facet normal 1 0 1.22465e-16
    outer loop
      vertex 6 1 -2.93915e-15
      vertex 6 18.15 4
      vertex 6 18.2974 4.55
    endloop
  endfacet
  facet normal 1 0 1.22465e-16
    outer loop
      vertex 6 1 -2.93915e-15
      vertex 6 18.2974 3.45
      vertex 6 18.15 4
    endloop
  endfacet
  facet normal 1 0 1.22465e-16
    outer loop
      vertex 6 18.7 4.95263
      vertex 6 19.25 5.1
      vertex 6 22 8
    endloop
  endfacet
  facet normal -0.743145 0.66913 -9.1009e-17
    outer loop
      vertex 3.36969 -2.5 -3.26127e-15
      vertex 3.36969 -2.5 24
      vertex 3.39787 -2.4687 -3.25782e-15
    endloop
  endfacet
  facet normal -0.743145 0.66913 -9.1009e-17
    outer loop
      vertex 3.39787 -2.4687 -3.25782e-15
      vertex 3.36969 -2.5 24
      vertex 3.39787 -2.4687 24
    endloop
  endfacet
  facet normal -0.866025 0.5 -1.06057e-16
    outer loop
      vertex 3.39787 -2.4687 -3.25782e-15
      vertex 3.39787 -2.4687 24
      vertex 3.83689 -1.70829 -3.20406e-15
    endloop
  endfacet
  facet normal -0.866025 0.5 -1.06057e-16
    outer loop
      vertex 3.83689 -1.70829 -3.20406e-15
      vertex 3.39787 -2.4687 24
      vertex 3.83689 -1.70829 24
    endloop
  endfacet
  facet normal -0.951057 0.309017 -1.16471e-16
    outer loop
      vertex 3.83689 -1.70829 -3.20406e-15
      vertex 3.83689 -1.70829 24
      vertex 4.10822 -0.873229 -3.17083e-15
    endloop
  endfacet
  facet normal -0.951057 0.309017 -1.16471e-16
    outer loop
      vertex 4.10822 -0.873229 -3.17083e-15
      vertex 3.83689 -1.70829 24
      vertex 4.10822 -0.873229 24
    endloop
  endfacet
  facet normal -0.994522 0.104528 -1.21794e-16
    outer loop
      vertex 4.10822 -0.873229 -3.17083e-15
      vertex 4.10822 -0.873229 24
      vertex 4.2 0 -3.15959e-15
    endloop
  endfacet
  facet normal -0.994522 0.104528 -1.21794e-16
    outer loop
      vertex 4.2 0 -3.15959e-15
      vertex 4.10822 -0.873229 24
      vertex 4.2 0 24
    endloop
  endfacet
  facet normal -0.994522 -0.104528 -1.21794e-16
    outer loop
      vertex 4.10822 0.873229 -3.17083e-15
      vertex 4.2 0 -3.15959e-15
      vertex 4.10822 0.873229 24
    endloop
  endfacet
  facet normal -0.994522 -0.104528 -1.21794e-16
    outer loop
      vertex 4.10822 0.873229 24
      vertex 4.2 0 -3.15959e-15
      vertex 4.2 0 24
    endloop
  endfacet
  facet normal -0.951057 -0.309017 -1.16471e-16
    outer loop
      vertex 3.83689 1.70829 -3.20406e-15
      vertex 4.10822 0.873229 -3.17083e-15
      vertex 3.83689 1.70829 24
    endloop
  endfacet
  facet normal -0.951057 -0.309017 -1.16471e-16
    outer loop
      vertex 3.83689 1.70829 24
      vertex 4.10822 0.873229 -3.17083e-15
      vertex 4.10822 0.873229 24
    endloop
  endfacet
  facet normal -0.866025 -0.5 -1.06057e-16
    outer loop
      vertex 3.39787 2.4687 -3.25782e-15
      vertex 3.83689 1.70829 -3.20406e-15
      vertex 3.39787 2.4687 24
    endloop
  endfacet
  facet normal -0.866025 -0.5 -1.06057e-16
    outer loop
      vertex 3.39787 2.4687 24
      vertex 3.83689 1.70829 -3.20406e-15
      vertex 3.83689 1.70829 24
    endloop
  endfacet
  facet normal -0.743145 -0.66913 -9.1009e-17
    outer loop
      vertex 2.81035 3.12121 -3.32977e-15
      vertex 3.39787 2.4687 -3.25782e-15
      vertex 2.81035 3.12121 24
    endloop
  endfacet
  facet normal -0.743145 -0.66913 -9.1009e-17
    outer loop
      vertex 2.81035 3.12121 24
      vertex 3.39787 2.4687 -3.25782e-15
      vertex 3.39787 2.4687 24
    endloop
  endfacet
  facet normal -0.587785 -0.809017 -7.1983e-17
    outer loop
      vertex 2.1 3.63731 24
      vertex 2.1 3.63731 -3.41676e-15
      vertex 2.81035 3.12121 -3.32977e-15
    endloop
  endfacet
  facet normal -0.587785 -0.809017 -7.1983e-17
    outer loop
      vertex 2.81035 3.12121 24
      vertex 2.1 3.63731 24
      vertex 2.81035 3.12121 -3.32977e-15
    endloop
  endfacet
  facet normal -0.406736 -0.913546 -4.98108e-17
    outer loop
      vertex 1.29787 3.99444 24
      vertex 1.29787 3.99444 -3.515e-15
      vertex 2.1 3.63731 -3.41676e-15
    endloop
  endfacet
  facet normal -0.406736 -0.913546 -4.98108e-17
    outer loop
      vertex 2.1 3.63731 24
      vertex 1.29787 3.99444 24
      vertex 2.1 3.63731 -3.41676e-15
    endloop
  endfacet
  facet normal -0.207912 -0.978147 -2.54619e-17
    outer loop
      vertex 0.43902 4.17699 24
      vertex 0.43902 4.17699 -3.62018e-15
      vertex 1.29787 3.99444 -3.515e-15
    endloop
  endfacet
  facet normal -0.207912 -0.978147 -2.54619e-17
    outer loop
      vertex 1.29787 3.99444 24
      vertex 0.43902 4.17699 24
      vertex 1.29787 3.99444 -3.515e-15
    endloop
  endfacet
  facet normal 0 -1 0
    outer loop
      vertex -0.43902 4.17699 24
      vertex -0.43902 4.17699 -3.7277e-15
      vertex 0.43902 4.17699 -3.62018e-15
    endloop
  endfacet
  facet normal 0 -1 0
    outer loop
      vertex 0.43902 4.17699 24
      vertex -0.43902 4.17699 24
      vertex 0.43902 4.17699 -3.62018e-15
    endloop
  endfacet
  facet normal 0.207912 -0.978147 2.54619e-17
    outer loop
      vertex -1.29787 3.99444 24
      vertex -1.29787 3.99444 -3.83288e-15
      vertex -0.43902 4.17699 -3.7277e-15
    endloop
  endfacet
  facet normal 0.207912 -0.978147 2.54619e-17
    outer loop
      vertex -0.43902 4.17699 24
      vertex -1.29787 3.99444 24
      vertex -0.43902 4.17699 -3.7277e-15
    endloop
  endfacet
  facet normal 0.406736 -0.913546 4.98108e-17
    outer loop
      vertex -2.1 3.63731 24
      vertex -2.1 3.63731 -3.93112e-15
      vertex -1.29787 3.99444 -3.83288e-15
    endloop
  endfacet
  facet normal 0.406736 -0.913546 4.98108e-17
    outer loop
      vertex -1.29787 3.99444 24
      vertex -2.1 3.63731 24
      vertex -1.29787 3.99444 -3.83288e-15
    endloop
  endfacet
  facet normal 0.587785 -0.809017 7.1983e-17
    outer loop
      vertex -2.81035 3.12121 24
      vertex -2.81035 3.12121 -4.01811e-15
      vertex -2.1 3.63731 -3.93112e-15
    endloop
  endfacet
  facet normal 0.587785 -0.809017 7.1983e-17
    outer loop
      vertex -2.1 3.63731 24
      vertex -2.81035 3.12121 24
      vertex -2.1 3.63731 -3.93112e-15
    endloop
  endfacet
  facet normal 0.743145 -0.66913 9.1009e-17
    outer loop
      vertex -3.39787 2.4687 24
      vertex -3.39787 2.4687 -4.09006e-15
      vertex -2.81035 3.12121 -4.01811e-15
    endloop
  endfacet
  facet normal 0.743145 -0.66913 9.1009e-17
    outer loop
      vertex -2.81035 3.12121 24
      vertex -3.39787 2.4687 24
      vertex -2.81035 3.12121 -4.01811e-15
    endloop
  endfacet
  facet normal 0.866025 -0.5 1.06057e-16
    outer loop
      vertex -3.83689 1.70829 24
      vertex -3.83689 1.70829 -4.14382e-15
      vertex -3.39787 2.4687 -4.09006e-15
    endloop
  endfacet
  facet normal 0.866025 -0.5 1.06057e-16
    outer loop
      vertex -3.39787 2.4687 24
      vertex -3.83689 1.70829 24
      vertex -3.39787 2.4687 -4.09006e-15
    endloop
  endfacet
  facet normal 0.951057 -0.309017 1.16471e-16
    outer loop
      vertex -4.10822 0.873229 24
      vertex -4.10822 0.873229 -4.17705e-15
      vertex -3.83689 1.70829 -4.14382e-15
    endloop
  endfacet
  facet normal 0.951057 -0.309017 1.16471e-16
    outer loop
      vertex -3.83689 1.70829 24
      vertex -4.10822 0.873229 24
      vertex -3.83689 1.70829 -4.14382e-15
    endloop
  endfacet
  facet normal 0.994522 -0.104528 1.21794e-16
    outer loop
      vertex -4.2 0 24
      vertex -4.2 0 -4.18829e-15
      vertex -4.10822 0.873229 -4.17705e-15
    endloop
  endfacet
  facet normal 0.994522 -0.104528 1.21794e-16
    outer loop
      vertex -4.10822 0.873229 24
      vertex -4.2 0 24
      vertex -4.10822 0.873229 -4.17705e-15
    endloop
  endfacet
  facet normal 0.994522 0.104528 1.21794e-16
    outer loop
      vertex -4.10822 -0.873229 -4.17705e-15
      vertex -4.2 0 -4.18829e-15
      vertex -4.2 0 24
    endloop
  endfacet
  facet normal 0.994522 0.104528 1.21794e-16
    outer loop
      vertex -4.10822 -0.873229 24
      vertex -4.10822 -0.873229 -4.17705e-15
      vertex -4.2 0 24
    endloop
  endfacet
  facet normal 0.951057 0.309017 1.16471e-16
    outer loop
      vertex -3.83689 -1.70829 -4.14382e-15
      vertex -4.10822 -0.873229 -4.17705e-15
      vertex -4.10822 -0.873229 24
    endloop
  endfacet
  facet normal 0.951057 0.309017 1.16471e-16
    outer loop
      vertex -3.83689 -1.70829 24
      vertex -3.83689 -1.70829 -4.14382e-15
      vertex -4.10822 -0.873229 24
    endloop
  endfacet
  facet normal 0.866025 0.5 1.06057e-16
    outer loop
      vertex -3.39787 -2.4687 -4.09006e-15
      vertex -3.83689 -1.70829 -4.14382e-15
      vertex -3.83689 -1.70829 24
    endloop
  endfacet
  facet normal 0.866025 0.5 1.06057e-16
    outer loop
      vertex -3.39787 -2.4687 24
      vertex -3.39787 -2.4687 -4.09006e-15
      vertex -3.83689 -1.70829 24
    endloop
  endfacet
  facet normal 0.743145 0.66913 9.1009e-17
    outer loop
      vertex -3.36969 -2.5 -4.08661e-15
      vertex -3.39787 -2.4687 -4.09006e-15
      vertex -3.39787 -2.4687 24
    endloop
  endfacet
  facet normal 0.743145 0.66913 9.1009e-17
    outer loop
      vertex -3.36969 -2.5 24
      vertex -3.36969 -2.5 -4.08661e-15
      vertex -3.39787 -2.4687 24
    endloop
  endfacet
  facet normal 0 -1 0
    outer loop
      vertex -3.36969 -2.5 -4.08661e-15
      vertex -3.36969 -2.5 24
      vertex -6 -2.5 24
    endloop
  endfacet
  facet normal 0 -1 0
    outer loop
      vertex -6 -2.5 -4.40873e-15
      vertex -3.36969 -2.5 -4.08661e-15
      vertex -6 -2.5 24
    endloop
  endfacet
  facet normal -1 0 -1.22465e-16
    outer loop
      vertex -6 -2.5 24
      vertex -6 10 24
      vertex -6 -2.5 -4.40873e-15
    endloop
  endfacet
  facet normal -1 0 -1.22465e-16
    outer loop
      vertex -6 -2.5 -4.40873e-15
      vertex -6 10 24
      vertex -6 10 8
    endloop
  endfacet
  facet normal -1 0 -1.22465e-16
    outer loop
      vertex -6 19.8 4.95263
      vertex -6 10 8
      vertex -6 33.9343 8
    endloop
  endfacet
  facet normal -1 0 -1.22465e-16
    outer loop
      vertex -6 29.7026 3.45
      vertex -6 33.9343 8
      vertex -6 33.9343 -4.40873e-15
    endloop
  endfacet
  facet normal -1 0 -1.22465e-16
    outer loop
      vertex -6 19.8 3.04737
      vertex -6 33.9343 -4.40873e-15
      vertex -6 19.25 2.9
    endloop
  endfacet
  facet normal -1 0 -1.22465e-16
    outer loop
      vertex -6 -2.5 -4.40873e-15
      vertex -6 18.2974 4.55
      vertex -6 18.15 4
    endloop
  endfacet
  facet normal -1 0 -1.22465e-16
    outer loop
      vertex -6 -2.5 -4.40873e-15
      vertex -6 18.15 4
      vertex -6 18.2974 3.45
    endloop
  endfacet
  facet normal -1 0 -1.22465e-16
    outer loop
      vertex -6 -2.5 -4.40873e-15
      vertex -6 18.2974 3.45
      vertex -6 18.7 3.04737
    endloop
  endfacet
  facet normal -1 0 -1.22465e-16
    outer loop
      vertex -6 -2.5 -4.40873e-15
      vertex -6 18.7 3.04737
      vertex -6 19.25 2.9
    endloop
  endfacet
  facet normal -1 0 -1.22465e-16
    outer loop
      vertex -6 -2.5 -4.40873e-15
      vertex -6 19.25 2.9
      vertex -6 33.9343 -4.40873e-15
    endloop
  endfacet
  facet normal -1 0 -1.22465e-16
    outer loop
      vertex -6 20.2026 3.45
      vertex -6 33.9343 -4.40873e-15
      vertex -6 19.8 3.04737
    endloop
  endfacet
  facet normal -1 0 -1.22465e-16
    outer loop
      vertex -6 20.35 4
      vertex -6 33.9343 -4.40873e-15
      vertex -6 20.2026 3.45
    endloop
  endfacet
  facet normal -1 0 -1.22465e-16
    outer loop
      vertex -6 20.2026 4.55
      vertex -6 33.9343 8
      vertex -6 20.35 4
    endloop
  endfacet
  facet normal -1 0 -1.22465e-16
    outer loop
      vertex -6 19.8 4.95263
      vertex -6 33.9343 8
      vertex -6 20.2026 4.55
    endloop
  endfacet
  facet normal -1 0 -1.22465e-16
    outer loop
      vertex -6 19.25 5.1
      vertex -6 10 8
      vertex -6 19.8 4.95263
    endloop
  endfacet
  facet normal -1 0 -1.22465e-16
    outer loop
      vertex -6 -2.5 -4.40873e-15
      vertex -6 10 8
      vertex -6 19.25 5.1
    endloop
  endfacet
  facet normal -1 0 -1.22465e-16
    outer loop
      vertex -6 -2.5 -4.40873e-15
      vertex -6 19.25 5.1
      vertex -6 18.7 4.95263
    endloop
  endfacet
  facet normal -1 0 -1.22465e-16
    outer loop
      vertex -6 20.35 4
      vertex -6 27.7974 4.55
      vertex -6 27.65 4
    endloop
  endfacet
  facet normal -1 0 -1.22465e-16
    outer loop
      vertex -6 20.35 4
      vertex -6 27.65 4
      vertex -6 27.7974 3.45
    endloop
  endfacet
  facet normal -1 0 -1.22465e-16
    outer loop
      vertex -6 20.35 4
      vertex -6 27.7974 3.45
      vertex -6 28.2 3.04737
    endloop
  endfacet
  facet normal -1 0 -1.22465e-16
    outer loop
      vertex -6 20.35 4
      vertex -6 28.2 3.04737
      vertex -6 33.9343 -4.40873e-15
    endloop
  endfacet
  facet normal -1 0 -1.22465e-16
    outer loop
      vertex -6 28.2 3.04737
      vertex -6 28.75 2.9
      vertex -6 33.9343 -4.40873e-15
    endloop
  endfacet
  facet normal -1 0 -1.22465e-16
    outer loop
      vertex -6 29.7026 3.45
      vertex -6 33.9343 -4.40873e-15
      vertex -6 29.3 3.04737
    endloop
  endfacet
  facet normal -1 0 -1.22465e-16
    outer loop
      vertex -6 29.85 4
      vertex -6 33.9343 8
      vertex -6 29.7026 3.45
    endloop
  endfacet
  facet normal -1 0 -1.22465e-16
    outer loop
      vertex -6 28.75 5.1
      vertex -6 33.9343 8
      vertex -6 29.3 4.95263
    endloop
  endfacet
  facet normal -1 0 -1.22465e-16
    outer loop
      vertex -6 29.7026 4.55
      vertex -6 33.9343 8
      vertex -6 29.85 4
    endloop
  endfacet
  facet normal -1 0 -1.22465e-16
    outer loop
      vertex -6 29.3 4.95263
      vertex -6 33.9343 8
      vertex -6 29.7026 4.55
    endloop
  endfacet
  facet normal -1 0 -1.22465e-16
    outer loop
      vertex -6 20.35 4
      vertex -6 33.9343 8
      vertex -6 28.75 5.1
    endloop
  endfacet
  facet normal -1 0 -1.22465e-16
    outer loop
      vertex -6 20.35 4
      vertex -6 28.75 5.1
      vertex -6 28.2 4.95263
    endloop
  endfacet
  facet normal -1 0 -1.22465e-16
    outer loop
      vertex -6 20.35 4
      vertex -6 28.2 4.95263
      vertex -6 27.7974 4.55
    endloop
  endfacet
  facet normal -1 0 -1.22465e-16
    outer loop
      vertex -6 18.2974 4.55
      vertex -6 -2.5 -4.40873e-15
      vertex -6 18.7 4.95263
    endloop
  endfacet
  facet normal -1 0 -1.22465e-16
    outer loop
      vertex -6 29.3 3.04737
      vertex -6 33.9343 -4.40873e-15
      vertex -6 28.75 2.9
    endloop
  endfacet
  facet normal -0.994522 0.104528 -1.21794e-16
    outer loop
      vertex -5.86889 11.2475 24
      vertex -5.86889 11.2475 8
      vertex -6 10 24
    endloop
  endfacet
  facet normal -0.994522 0.104528 -1.21794e-16
    outer loop
      vertex -6 10 24
      vertex -5.86889 11.2475 8
      vertex -6 10 8
    endloop
  endfacet
  facet normal -0.951057 0.309017 -1.16471e-16
    outer loop
      vertex -5.48127 12.4404 24
      vertex -5.48127 12.4404 8
      vertex -5.86889 11.2475 24
    endloop
  endfacet
  facet normal -0.951057 0.309017 -1.16471e-16
    outer loop
      vertex -5.86889 11.2475 24
      vertex -5.48127 12.4404 8
      vertex -5.86889 11.2475 8
    endloop
  endfacet
  facet normal -0.866025 0.5 -1.06058e-16
    outer loop
      vertex -4.8541 13.5267 24
      vertex -4.8541 13.5267 8
      vertex -5.48127 12.4404 24
    endloop
  endfacet
  facet normal -0.866025 0.5 -1.06058e-16
    outer loop
      vertex -5.48127 12.4404 24
      vertex -4.8541 13.5267 8
      vertex -5.48127 12.4404 8
    endloop
  endfacet
  facet normal -0.743145 0.669131 -9.1009e-17
    outer loop
      vertex -4.01478 14.4589 24
      vertex -4.01478 14.4589 8
      vertex -4.8541 13.5267 24
    endloop
  endfacet
  facet normal -0.743145 0.669131 -9.1009e-17
    outer loop
      vertex -4.8541 13.5267 24
      vertex -4.01478 14.4589 8
      vertex -4.8541 13.5267 8
    endloop
  endfacet
  facet normal -0.587785 0.809017 -7.19829e-17
    outer loop
      vertex -3 15.1962 24
      vertex -3 15.1962 8
      vertex -4.01478 14.4589 24
    endloop
  endfacet
  facet normal -0.587785 0.809017 -7.19829e-17
    outer loop
      vertex -4.01478 14.4589 24
      vertex -3 15.1962 8
      vertex -4.01478 14.4589 8
    endloop
  endfacet
  facet normal -0.406737 0.913545 -4.98109e-17
    outer loop
      vertex -1.8541 15.7063 24
      vertex -1.8541 15.7063 8
      vertex -3 15.1962 24
    endloop
  endfacet
  facet normal -0.406737 0.913545 -4.98109e-17
    outer loop
      vertex -3 15.1962 24
      vertex -1.8541 15.7063 8
      vertex -3 15.1962 8
    endloop
  endfacet
  facet normal -0.207912 0.978148 -2.54618e-17
    outer loop
      vertex -0.627171 15.9671 24
      vertex -0.627171 15.9671 8
      vertex -1.8541 15.7063 24
    endloop
  endfacet
  facet normal -0.207912 0.978148 -2.54618e-17
    outer loop
      vertex -1.8541 15.7063 24
      vertex -0.627171 15.9671 8
      vertex -1.8541 15.7063 8
    endloop
  endfacet
  facet normal 0 1 0
    outer loop
      vertex 0.627171 15.9671 24
      vertex 0.627171 15.9671 8
      vertex -0.627171 15.9671 24
    endloop
  endfacet
  facet normal 0 1 0
    outer loop
      vertex -0.627171 15.9671 24
      vertex 0.627171 15.9671 8
      vertex -0.627171 15.9671 8
    endloop
  endfacet
  facet normal 0.207912 0.978148 2.54618e-17
    outer loop
      vertex 1.8541 15.7063 24
      vertex 1.8541 15.7063 8
      vertex 0.627171 15.9671 24
    endloop
  endfacet
  facet normal 0.207912 0.978148 2.54618e-17
    outer loop
      vertex 0.627171 15.9671 24
      vertex 1.8541 15.7063 8
      vertex 0.627171 15.9671 8
    endloop
  endfacet
  facet normal 0.406737 0.913545 4.98109e-17
    outer loop
      vertex 3 15.1962 24
      vertex 3 15.1962 8
      vertex 1.8541 15.7063 24
    endloop
  endfacet
  facet normal 0.406737 0.913545 4.98109e-17
    outer loop
      vertex 1.8541 15.7063 24
      vertex 3 15.1962 8
      vertex 1.8541 15.7063 8
    endloop
  endfacet
  facet normal 0.587785 0.809017 7.19829e-17
    outer loop
      vertex 4.01478 14.4589 24
      vertex 4.01478 14.4589 8
      vertex 3 15.1962 24
    endloop
  endfacet
  facet normal 0.587785 0.809017 7.19829e-17
    outer loop
      vertex 3 15.1962 24
      vertex 4.01478 14.4589 8
      vertex 3 15.1962 8
    endloop
  endfacet
  facet normal 0.743145 0.669131 9.1009e-17
    outer loop
      vertex 4.01478 14.4589 24
      vertex 4.8541 13.5267 24
      vertex 4.8541 13.5267 8
    endloop
  endfacet
  facet normal 0.743145 0.669131 9.1009e-17
    outer loop
      vertex 4.01478 14.4589 8
      vertex 4.01478 14.4589 24
      vertex 4.8541 13.5267 8
    endloop
  endfacet
  facet normal 0.866025 0.5 1.06058e-16
    outer loop
      vertex 4.8541 13.5267 24
      vertex 5.48127 12.4404 24
      vertex 5.48127 12.4404 8
    endloop
  endfacet
  facet normal 0.866025 0.5 1.06058e-16
    outer loop
      vertex 4.8541 13.5267 8
      vertex 4.8541 13.5267 24
      vertex 5.48127 12.4404 8
    endloop
  endfacet
  facet normal 0.951057 0.309017 1.16471e-16
    outer loop
      vertex 5.48127 12.4404 24
      vertex 5.86889 11.2475 24
      vertex 5.86889 11.2475 8
    endloop
  endfacet
  facet normal 0.951057 0.309017 1.16471e-16
    outer loop
      vertex 5.48127 12.4404 8
      vertex 5.48127 12.4404 24
      vertex 5.86889 11.2475 8
    endloop
  endfacet
  facet normal 0.994522 0.104528 1.21794e-16
    outer loop
      vertex 5.86889 11.2475 24
      vertex 6 10 24
      vertex 6 10 8
    endloop
  endfacet
  facet normal 0.994522 0.104528 1.21794e-16
    outer loop
      vertex 5.86889 11.2475 8
      vertex 5.86889 11.2475 24
      vertex 6 10 8
    endloop
  endfacet
  facet normal -0.965926 -0.258819 -1.18292e-16
    outer loop
      vertex 1.90526 13.1 -3.44061e-15
      vertex 2.2 12 -3.40452e-15
      vertex 1.90526 13.1 24
    endloop
  endfacet
  facet normal -0.965926 -0.258819 -1.18292e-16
    outer loop
      vertex 1.90526 13.1 24
      vertex 2.2 12 -3.40452e-15
      vertex 2.2 12 24
    endloop
  endfacet
  facet normal -0.965926 0.258819 -1.18292e-16
    outer loop
      vertex 1.90526 10.9 -3.44061e-15
      vertex 1.90526 10.9 24
      vertex 2.2 12 -3.40452e-15
    endloop
  endfacet
  facet normal -0.965926 0.258819 -1.18292e-16
    outer loop
      vertex 2.2 12 -3.40452e-15
      vertex 1.90526 10.9 24
      vertex 2.2 12 24
    endloop
  endfacet
  facet normal -0.707107 -0.707107 -8.65956e-17
    outer loop
      vertex 1.1 13.9053 24
      vertex 1.1 13.9053 -3.53923e-15
      vertex 1.90526 13.1 -3.44061e-15
    endloop
  endfacet
  facet normal -0.707107 -0.707107 -8.65956e-17
    outer loop
      vertex 1.90526 13.1 24
      vertex 1.1 13.9053 24
      vertex 1.90526 13.1 -3.44061e-15
    endloop
  endfacet
  facet normal -0.258819 -0.965926 -3.16962e-17
    outer loop
      vertex -2.93915e-15 14.2 24
      vertex 0 14.2 -3.67394e-15
      vertex 1.1 13.9053 -3.53923e-15
    endloop
  endfacet
  facet normal -0.258819 -0.965926 -3.16962e-17
    outer loop
      vertex 1.1 13.9053 24
      vertex -2.93915e-15 14.2 24
      vertex 1.1 13.9053 -3.53923e-15
    endloop
  endfacet
  facet normal 0.258819 -0.965926 3.16962e-17
    outer loop
      vertex -1.1 13.9053 24
      vertex -1.1 13.9053 -3.80865e-15
      vertex 0 14.2 -3.67394e-15
    endloop
  endfacet
  facet normal 0.258819 -0.965926 3.16962e-17
    outer loop
      vertex -2.93915e-15 14.2 24
      vertex -1.1 13.9053 24
      vertex 0 14.2 -3.67394e-15
    endloop
  endfacet
  facet normal 0.707107 -0.707107 8.65956e-17
    outer loop
      vertex -1.90526 13.1 24
      vertex -1.90526 13.1 -3.90727e-15
      vertex -1.1 13.9053 -3.80865e-15
    endloop
  endfacet
  facet normal 0.707107 -0.707107 8.65956e-17
    outer loop
      vertex -1.1 13.9053 24
      vertex -1.90526 13.1 24
      vertex -1.1 13.9053 -3.80865e-15
    endloop
  endfacet
  facet normal 0.965926 -0.258819 1.18292e-16
    outer loop
      vertex -2.2 12 24
      vertex -2.2 12 -3.94336e-15
      vertex -1.90526 13.1 -3.90727e-15
    endloop
  endfacet
  facet normal 0.965926 -0.258819 1.18292e-16
    outer loop
      vertex -1.90526 13.1 24
      vertex -2.2 12 24
      vertex -1.90526 13.1 -3.90727e-15
    endloop
  endfacet
  facet normal 0.965926 0.258819 1.18292e-16
    outer loop
      vertex -1.90526 10.9 -3.90727e-15
      vertex -2.2 12 -3.94336e-15
      vertex -2.2 12 24
    endloop
  endfacet
  facet normal 0.965926 0.258819 1.18292e-16
    outer loop
      vertex -1.90526 10.9 24
      vertex -1.90526 10.9 -3.90727e-15
      vertex -2.2 12 24
    endloop
  endfacet
  facet normal 0.707107 0.707107 8.65956e-17
    outer loop
      vertex -1.90526 10.9 -3.90727e-15
      vertex -1.90526 10.9 24
      vertex -1.1 10.0947 -3.80865e-15
    endloop
  endfacet
  facet normal 0.707107 0.707107 8.65956e-17
    outer loop
      vertex -1.1 10.0947 -3.80865e-15
      vertex -1.90526 10.9 24
      vertex -1.1 10.0947 24
    endloop
  endfacet
  facet normal 0.258819 0.965926 3.16962e-17
    outer loop
      vertex -1.1 10.0947 -3.80865e-15
      vertex -1.1 10.0947 24
      vertex 0 9.8 -3.67394e-15
    endloop
  endfacet
  facet normal 0.258819 0.965926 3.16962e-17
    outer loop
      vertex 0 9.8 -3.67394e-15
      vertex -1.1 10.0947 24
      vertex -2.93915e-15 9.8 24
    endloop
  endfacet
  facet normal -0.258819 0.965926 -3.16962e-17
    outer loop
      vertex 0 9.8 -3.67394e-15
      vertex -2.93915e-15 9.8 24
      vertex 1.1 10.0947 -3.53923e-15
    endloop
  endfacet
  facet normal -0.258819 0.965926 -3.16962e-17
    outer loop
      vertex 1.1 10.0947 -3.53923e-15
      vertex -2.93915e-15 9.8 24
      vertex 1.1 10.0947 24
    endloop
  endfacet
  facet normal -0.707107 0.707107 -8.65956e-17
    outer loop
      vertex 1.1 10.0947 -3.53923e-15
      vertex 1.1 10.0947 24
      vertex 1.90526 10.9 -3.44061e-15
    endloop
  endfacet
  facet normal -0.707107 0.707107 -8.65956e-17
    outer loop
      vertex 1.90526 10.9 -3.44061e-15
      vertex 1.1 10.0947 24
      vertex 1.90526 10.9 24
    endloop
  endfacet
  facet normal 0.994522 0.104529 1.21794e-16
    outer loop
      vertex 5.73777 24.4949 8
      vertex 6 22 8
      vertex 6 22 -2.93915e-15
    endloop
  endfacet
  facet normal 0.994522 0.104529 1.21794e-16
    outer loop
      vertex 5.73777 24.4949 -2.97127e-15
      vertex 5.73777 24.4949 8
      vertex 6 22 -2.93915e-15
    endloop
  endfacet
  facet normal 0.951057 0.309017 1.16471e-16
    outer loop
      vertex 4.96254 26.8808 8
      vertex 5.73777 24.4949 8
      vertex 5.73777 24.4949 -2.97127e-15
    endloop
  endfacet
  facet normal 0.951057 0.309017 1.16471e-16
    outer loop
      vertex 4.96254 26.8808 -3.0662e-15
      vertex 4.96254 26.8808 8
      vertex 5.73777 24.4949 -2.97127e-15
    endloop
  endfacet
  facet normal 0.866025 0.5 1.06058e-16
    outer loop
      vertex 4.51847 27.65 4
      vertex 4.96254 26.8808 8
      vertex 4.96254 26.8808 -3.0662e-15
    endloop
  endfacet
  facet normal 0.866025 0.5 1.06058e-16
    outer loop
      vertex 4.51847 27.65 4
      vertex 4.43339 27.7974 4.55
      vertex 4.96254 26.8808 8
    endloop
  endfacet
  facet normal 0.866025 0.5 1.06058e-16
    outer loop
      vertex 3.7082 29.0534 -3.21982e-15
      vertex 3.7082 29.0534 2.9813
      vertex 4.96254 26.8808 -3.0662e-15
    endloop
  endfacet
  facet normal 0.866025 0.5 1.06058e-16
    outer loop
      vertex 3.7082 29.0534 2.9813
      vertex 3.88339 28.75 2.9
      vertex 4.96254 26.8808 -3.0662e-15
    endloop
  endfacet
  facet normal 0.866025 0.5 1.06058e-16
    outer loop
      vertex 3.88339 28.75 2.9
      vertex 4.20093 28.2 3.04737
      vertex 4.96254 26.8808 -3.0662e-15
    endloop
  endfacet
  facet normal 0.866025 0.5 1.06058e-16
    outer loop
      vertex 4.43339 27.7974 3.45
      vertex 4.51847 27.65 4
      vertex 4.96254 26.8808 -3.0662e-15
    endloop
  endfacet
  facet normal 0.866025 0.5 1.06058e-16
    outer loop
      vertex 3.7082 29.0534 8
      vertex 4.96254 26.8808 8
      vertex 4.43339 27.7974 4.55
    endloop
  endfacet
  facet normal 0.866025 0.5 1.06058e-16
    outer loop
      vertex 3.7082 29.0534 8
      vertex 4.43339 27.7974 4.55
      vertex 4.20093 28.2 4.95263
    endloop
  endfacet
  facet normal 0.866025 0.5 1.06058e-16
    outer loop
      vertex 3.88339 28.75 5.1
      vertex 3.7082 29.0534 5.0187
      vertex 3.7082 29.0534 8
    endloop
  endfacet
  facet normal 0.866025 0.5 1.06058e-16
    outer loop
      vertex 4.20093 28.2 3.04737
      vertex 4.43339 27.7974 3.45
      vertex 4.96254 26.8808 -3.0662e-15
    endloop
  endfacet
  facet normal 0.866025 0.5 1.06058e-16
    outer loop
      vertex 4.20093 28.2 4.95263
      vertex 3.88339 28.75 5.1
      vertex 3.7082 29.0534 8
    endloop
  endfacet
  facet normal 0.743145 0.669131 9.1009e-17
    outer loop
      vertex 2.02957 30.9177 8
      vertex 3.7082 29.0534 8
      vertex 3.7082 29.0534 5.0187
    endloop
  endfacet
  facet normal 0.743145 0.669131 9.1009e-17
    outer loop
      vertex 3.12366 29.7026 4.55
      vertex 2.02957 30.9177 8
      vertex 3.48619 29.3 4.95263
    endloop
  endfacet
  facet normal 0.743145 0.669131 9.1009e-17
    outer loop
      vertex 3.48619 29.3 4.95263
      vertex 2.02957 30.9177 8
      vertex 3.7082 29.0534 5.0187
    endloop
  endfacet
  facet normal 0.743145 0.669131 9.1009e-17
    outer loop
      vertex 2.99096 29.85 4
      vertex 2.02957 30.9177 8
      vertex 3.12366 29.7026 4.55
    endloop
  endfacet
  facet normal 0.743145 0.669131 9.1009e-17
    outer loop
      vertex 3.7082 29.0534 -3.21982e-15
      vertex 2.02957 30.9177 8
      vertex 2.99096 29.85 4
    endloop
  endfacet
  facet normal 0.743145 0.669131 9.1009e-17
    outer loop
      vertex 3.7082 29.0534 -3.21982e-15
      vertex 2.99096 29.85 4
      vertex 3.12366 29.7026 3.45
    endloop
  endfacet
  facet normal 0.743145 0.669131 9.1009e-17
    outer loop
      vertex 3.7082 29.0534 -3.21982e-15
      vertex 3.12366 29.7026 3.45
      vertex 3.48619 29.3 3.04737
    endloop
  endfacet
  facet normal 0.743145 0.669131 9.1009e-17
    outer loop
      vertex 3.7082 29.0534 -3.21982e-15
      vertex 3.48619 29.3 3.04737
      vertex 3.7082 29.0534 2.9813
    endloop
  endfacet
  facet normal 0.743145 0.669131 9.1009e-17
    outer loop
      vertex 2.02957 30.9177 -3.42539e-15
      vertex 2.02957 30.9177 8
      vertex 3.7082 29.0534 -3.21982e-15
    endloop
  endfacet
  facet normal 0.587785 0.809017 7.19829e-17
    outer loop
      vertex 2.02957 30.9177 8
      vertex 2.02957 30.9177 -3.42539e-15
      vertex -9.79717e-16 32.3923 8
    endloop
  endfacet
  facet normal 0.587785 0.809017 7.19829e-17
    outer loop
      vertex -9.79717e-16 32.3923 8
      vertex 2.02957 30.9177 -3.42539e-15
      vertex 0 32.3923 -3.67394e-15
    endloop
  endfacet
  facet normal 0.406737 0.913546 4.98109e-17
    outer loop
      vertex -9.79717e-16 32.3923 8
      vertex 0 32.3923 -3.67394e-15
      vertex -2.2918 33.4127 8
    endloop
  endfacet
  facet normal 0.406737 0.913546 4.98109e-17
    outer loop
      vertex -2.2918 33.4127 8
      vertex 0 32.3923 -3.67394e-15
      vertex -2.2918 33.4127 -3.9546e-15
    endloop
  endfacet
  facet normal 0.207912 0.978148 2.54619e-17
    outer loop
      vertex -2.2918 33.4127 8
      vertex -2.2918 33.4127 -3.9546e-15
      vertex -4.74566 33.9343 8
    endloop
  endfacet
  facet normal 0.207912 0.978148 2.54619e-17
    outer loop
      vertex -4.74566 33.9343 8
      vertex -2.2918 33.4127 -3.9546e-15
      vertex -4.74566 33.9343 -4.25512e-15
    endloop
  endfacet
  facet normal 0 1 0
    outer loop
      vertex -4.74566 33.9343 8
      vertex -4.74566 33.9343 -4.25512e-15
      vertex -6 33.9343 8
    endloop
  endfacet
  facet normal 0 1 0
    outer loop
      vertex -6 33.9343 8
      vertex -4.74566 33.9343 -4.25512e-15
      vertex -6 33.9343 -4.40873e-15
    endloop
  endfacet
  facet normal -1.22465e-16 0 1
    outer loop
      vertex 5.86889 11.2475 8
      vertex 6 10 8
      vertex 6 22 8
    endloop
  endfacet
  facet normal -1.22465e-16 0 1
    outer loop
      vertex 4.96254 26.8808 8
      vertex 5.86889 11.2475 8
      vertex 5.73777 24.4949 8
    endloop
  endfacet
  facet normal -1.22465e-16 0 1
    outer loop
      vertex 5.73777 24.4949 8
      vertex 5.86889 11.2475 8
      vertex 6 22 8
    endloop
  endfacet
  facet normal -1.22465e-16 0 1
    outer loop
      vertex 3.7082 29.0534 8
      vertex 5.86889 11.2475 8
      vertex 4.96254 26.8808 8
    endloop
  endfacet
  facet normal -1.22465e-16 0 1
    outer loop
      vertex 3 15.1962 8
      vertex -4.74566 33.9343 8
      vertex -6 33.9343 8
    endloop
  endfacet
  facet normal -1.22465e-16 0 1
    outer loop
      vertex 3 15.1962 8
      vertex 4.01478 14.4589 8
      vertex -4.74566 33.9343 8
    endloop
  endfacet
  facet normal -1.22465e-16 0 1
    outer loop
      vertex 4.8541 13.5267 8
      vertex 5.48127 12.4404 8
      vertex -9.79717e-16 32.3923 8
    endloop
  endfacet
  facet normal -1.22465e-16 0 1
    outer loop
      vertex 4.01478 14.4589 8
      vertex 4.8541 13.5267 8
      vertex -2.2918 33.4127 8
    endloop
  endfacet
  facet normal -1.22465e-16 0 1
    outer loop
      vertex -6 10 8
      vertex -5.86889 11.2475 8
      vertex -6 33.9343 8
    endloop
  endfacet
  facet normal -1.22465e-16 0 1
    outer loop
      vertex -5.86889 11.2475 8
      vertex -5.48127 12.4404 8
      vertex -6 33.9343 8
    endloop
  endfacet
  facet normal -1.22465e-16 0 1
    outer loop
      vertex -5.48127 12.4404 8
      vertex -4.8541 13.5267 8
      vertex -6 33.9343 8
    endloop
  endfacet
  facet normal -1.22465e-16 0 1
    outer loop
      vertex -4.8541 13.5267 8
      vertex -4.01478 14.4589 8
      vertex -6 33.9343 8
    endloop
  endfacet
  facet normal -1.22465e-16 0 1
    outer loop
      vertex -4.01478 14.4589 8
      vertex -3 15.1962 8
      vertex -6 33.9343 8
    endloop
  endfacet
  facet normal -1.22465e-16 0 1
    outer loop
      vertex -3 15.1962 8
      vertex -1.8541 15.7063 8
      vertex -6 33.9343 8
    endloop
  endfacet
  facet normal -1.22465e-16 0 1
    outer loop
      vertex -1.8541 15.7063 8
      vertex -0.627171 15.9671 8
      vertex -6 33.9343 8
    endloop
  endfacet
  facet normal -1.22465e-16 0 1
    outer loop
      vertex -0.627171 15.9671 8
      vertex 0.627171 15.9671 8
      vertex -6 33.9343 8
    endloop
  endfacet
  facet normal -1.22465e-16 0 1
    outer loop
      vertex 0.627171 15.9671 8
      vertex 1.8541 15.7063 8
      vertex -6 33.9343 8
    endloop
  endfacet
  facet normal -1.22465e-16 0 1
    outer loop
      vertex 1.8541 15.7063 8
      vertex 3 15.1962 8
      vertex -6 33.9343 8
    endloop
  endfacet
  facet normal -1.22465e-16 0 1
    outer loop
      vertex -4.74566 33.9343 8
      vertex 4.01478 14.4589 8
      vertex -2.2918 33.4127 8
    endloop
  endfacet
  facet normal -1.22465e-16 0 1
    outer loop
      vertex -2.2918 33.4127 8
      vertex 4.8541 13.5267 8
      vertex -9.79717e-16 32.3923 8
    endloop
  endfacet
  facet normal -1.22465e-16 0 1
    outer loop
      vertex -9.79717e-16 32.3923 8
      vertex 5.48127 12.4404 8
      vertex 2.02957 30.9177 8
    endloop
  endfacet
  facet normal -1.22465e-16 0 1
    outer loop
      vertex 5.48127 12.4404 8
      vertex 3.7082 29.0534 8
      vertex 2.02957 30.9177 8
    endloop
  endfacet
  facet normal -1.22465e-16 0 1
    outer loop
      vertex 5.48127 12.4404 8
      vertex 5.86889 11.2475 8
      vertex 3.7082 29.0534 8
    endloop
  endfacet
  facet normal 8.91655e-17 0.965926 -0.258819
    outer loop
      vertex -6 18.2974 4.55
      vertex 6 18.2974 4.55
      vertex -6 18.15 4
    endloop
  endfacet
  facet normal 8.91655e-17 0.965926 -0.258819
    outer loop
      vertex -6 18.15 4
      vertex 6 18.2974 4.55
      vertex 6 18.15 4
    endloop
  endfacet
  facet normal 2.43605e-16 0.707107 -0.707107
    outer loop
      vertex -6 18.7 4.95263
      vertex 6 18.7 4.95263
      vertex -6 18.2974 4.55
    endloop
  endfacet
  facet normal 2.43605e-16 0.707107 -0.707107
    outer loop
      vertex -6 18.2974 4.55
      vertex 6 18.7 4.95263
      vertex 6 18.2974 4.55
    endloop
  endfacet
  facet normal -8.91655e-17 0.965926 0.258819
    outer loop
      vertex -6 18.2974 3.45
      vertex -6 18.15 4
      vertex 6 18.2974 3.45
    endloop
  endfacet
  facet normal -8.91655e-17 0.965926 0.258819
    outer loop
      vertex 6 18.2974 3.45
      vertex -6 18.15 4
      vertex 6 18.15 4
    endloop
  endfacet
  facet normal -2.43605e-16 0.707107 0.707107
    outer loop
      vertex -6 18.7 3.04737
      vertex -6 18.2974 3.45
      vertex 6 18.7 3.04737
    endloop
  endfacet
  facet normal -2.43605e-16 0.707107 0.707107
    outer loop
      vertex 6 18.7 3.04737
      vertex -6 18.2974 3.45
      vertex 6 18.2974 3.45
    endloop
  endfacet
  facet normal -3.3277e-16 0.258819 0.965926
    outer loop
      vertex 6 19.25 2.9
      vertex -6 19.25 2.9
      vertex -6 18.7 3.04737
    endloop
  endfacet
  facet normal -3.3277e-16 0.258819 0.965926
    outer loop
      vertex 6 18.7 3.04737
      vertex 6 19.25 2.9
      vertex -6 18.7 3.04737
    endloop
  endfacet
  facet normal -3.3277e-16 -0.258819 0.965926
    outer loop
      vertex 6 19.8 3.04737
      vertex -6 19.8 3.04737
      vertex -6 19.25 2.9
    endloop
  endfacet
  facet normal -3.3277e-16 -0.258819 0.965926
    outer loop
      vertex 6 19.25 2.9
      vertex 6 19.8 3.04737
      vertex -6 19.25 2.9
    endloop
  endfacet
  facet normal -2.43605e-16 -0.707107 0.707107
    outer loop
      vertex 6 20.2026 3.45
      vertex -6 20.2026 3.45
      vertex -6 19.8 3.04737
    endloop
  endfacet
  facet normal -2.43605e-16 -0.707107 0.707107
    outer loop
      vertex 6 19.8 3.04737
      vertex 6 20.2026 3.45
      vertex -6 19.8 3.04737
    endloop
  endfacet
  facet normal -8.91655e-17 -0.965926 0.258819
    outer loop
      vertex 6 20.35 4
      vertex -6 20.35 4
      vertex -6 20.2026 3.45
    endloop
  endfacet
  facet normal -8.91655e-17 -0.965926 0.258819
    outer loop
      vertex 6 20.2026 3.45
      vertex 6 20.35 4
      vertex -6 20.2026 3.45
    endloop
  endfacet
  facet normal 8.91655e-17 -0.965926 -0.258819
    outer loop
      vertex -6 20.2026 4.55
      vertex -6 20.35 4
      vertex 6 20.35 4
    endloop
  endfacet
  facet normal 8.91655e-17 -0.965926 -0.258819
    outer loop
      vertex 6 20.2026 4.55
      vertex -6 20.2026 4.55
      vertex 6 20.35 4
    endloop
  endfacet
  facet normal 2.43605e-16 -0.707107 -0.707107
    outer loop
      vertex -6 19.8 4.95263
      vertex -6 20.2026 4.55
      vertex 6 20.2026 4.55
    endloop
  endfacet
  facet normal 2.43605e-16 -0.707107 -0.707107
    outer loop
      vertex 6 19.8 4.95263
      vertex -6 19.8 4.95263
      vertex 6 20.2026 4.55
    endloop
  endfacet
  facet normal 3.3277e-16 -0.258819 -0.965926
    outer loop
      vertex -6 19.8 4.95263
      vertex 6 19.8 4.95263
      vertex -6 19.25 5.1
    endloop
  endfacet
  facet normal 3.3277e-16 -0.258819 -0.965926
    outer loop
      vertex -6 19.25 5.1
      vertex 6 19.8 4.95263
      vertex 6 19.25 5.1
    endloop
  endfacet
  facet normal 3.3277e-16 0.258819 -0.965926
    outer loop
      vertex -6 19.25 5.1
      vertex 6 19.25 5.1
      vertex -6 18.7 4.95263
    endloop
  endfacet
  facet normal 3.3277e-16 0.258819 -0.965926
    outer loop
      vertex -6 18.7 4.95263
      vertex 6 19.25 5.1
      vertex 6 18.7 4.95263
    endloop
  endfacet
  facet normal 8.91655e-17 0.965926 -0.258819
    outer loop
      vertex -6 27.7974 4.55
      vertex 4.43339 27.7974 4.55
      vertex -6 27.65 4
    endloop
  endfacet
  facet normal 8.91655e-17 0.965926 -0.258819
    outer loop
      vertex -6 27.65 4
      vertex 4.43339 27.7974 4.55
      vertex 4.51847 27.65 4
    endloop
  endfacet
  facet normal 2.43605e-16 0.707107 -0.707107
    outer loop
      vertex -6 28.2 4.95263
      vertex 4.20093 28.2 4.95263
      vertex -6 27.7974 4.55
    endloop
  endfacet
  facet normal 2.43605e-16 0.707107 -0.707107
    outer loop
      vertex -6 27.7974 4.55
      vertex 4.20093 28.2 4.95263
      vertex 4.43339 27.7974 4.55
    endloop
  endfacet
  facet normal 3.3277e-16 0.258819 -0.965926
    outer loop
      vertex -6 28.75 5.1
      vertex 3.88339 28.75 5.1
      vertex -6 28.2 4.95263
    endloop
  endfacet
  facet normal 3.3277e-16 0.258819 -0.965926
    outer loop
      vertex -6 28.2 4.95263
      vertex 3.88339 28.75 5.1
      vertex 4.20093 28.2 4.95263
    endloop
  endfacet
  facet normal 3.3277e-16 -0.258819 -0.965926
    outer loop
      vertex -6 29.3 4.95263
      vertex 3.48619 29.3 4.95263
      vertex -6 28.75 5.1
    endloop
  endfacet
  facet normal 3.3277e-16 -0.258819 -0.965926
    outer loop
      vertex -6 28.75 5.1
      vertex 3.48619 29.3 4.95263
      vertex 3.7082 29.0534 5.0187
    endloop
  endfacet
  facet normal 3.3277e-16 -0.258819 -0.965926
    outer loop
      vertex -6 28.75 5.1
      vertex 3.7082 29.0534 5.0187
      vertex 3.88339 28.75 5.1
    endloop
  endfacet
  facet normal 2.43605e-16 -0.707107 -0.707107
    outer loop
      vertex -6 29.3 4.95263
      vertex -6 29.7026 4.55
      vertex 3.12366 29.7026 4.55
    endloop
  endfacet
  facet normal 2.43605e-16 -0.707107 -0.707107
    outer loop
      vertex 3.48619 29.3 4.95263
      vertex -6 29.3 4.95263
      vertex 3.12366 29.7026 4.55
    endloop
  endfacet
  facet normal 8.91655e-17 -0.965926 -0.258819
    outer loop
      vertex -6 29.7026 4.55
      vertex -6 29.85 4
      vertex 2.99096 29.85 4
    endloop
  endfacet
  facet normal 8.91655e-17 -0.965926 -0.258819
    outer loop
      vertex 3.12366 29.7026 4.55
      vertex -6 29.7026 4.55
      vertex 2.99096 29.85 4
    endloop
  endfacet
  facet normal -8.91655e-17 -0.965926 0.258819
    outer loop
      vertex 2.99096 29.85 4
      vertex -6 29.85 4
      vertex -6 29.7026 3.45
    endloop
  endfacet
  facet normal -8.91655e-17 -0.965926 0.258819
    outer loop
      vertex 3.12366 29.7026 3.45
      vertex 2.99096 29.85 4
      vertex -6 29.7026 3.45
    endloop
  endfacet
  facet normal -2.43605e-16 -0.707107 0.707107
    outer loop
      vertex 3.12366 29.7026 3.45
      vertex -6 29.7026 3.45
      vertex -6 29.3 3.04737
    endloop
  endfacet
  facet normal -2.43605e-16 -0.707107 0.707107
    outer loop
      vertex 3.48619 29.3 3.04737
      vertex 3.12366 29.7026 3.45
      vertex -6 29.3 3.04737
    endloop
  endfacet
  facet normal -3.3277e-16 -0.258819 0.965926
    outer loop
      vertex 3.7082 29.0534 2.9813
      vertex 3.48619 29.3 3.04737
      vertex -6 29.3 3.04737
    endloop
  endfacet
  facet normal -3.3277e-16 -0.258819 0.965926
    outer loop
      vertex 3.88339 28.75 2.9
      vertex 3.7082 29.0534 2.9813
      vertex -6 28.75 2.9
    endloop
  endfacet
  facet normal -3.3277e-16 -0.258819 0.965926
    outer loop
      vertex -6 28.75 2.9
      vertex 3.7082 29.0534 2.9813
      vertex -6 29.3 3.04737
    endloop
  endfacet
  facet normal -3.3277e-16 0.258819 0.965926
    outer loop
      vertex 3.88339 28.75 2.9
      vertex -6 28.75 2.9
      vertex -6 28.2 3.04737
    endloop
  endfacet
  facet normal -3.3277e-16 0.258819 0.965926
    outer loop
      vertex 4.20093 28.2 3.04737
      vertex 3.88339 28.75 2.9
      vertex -6 28.2 3.04737
    endloop
  endfacet
  facet normal -2.43605e-16 0.707107 0.707107
    outer loop
      vertex -6 28.2 3.04737
      vertex -6 27.7974 3.45
      vertex 4.20093 28.2 3.04737
    endloop
  endfacet
  facet normal -2.43605e-16 0.707107 0.707107
    outer loop
      vertex 4.20093 28.2 3.04737
      vertex -6 27.7974 3.45
      vertex 4.43339 27.7974 3.45
    endloop
  endfacet
  facet normal -8.91655e-17 0.965926 0.258819
    outer loop
      vertex -6 27.7974 3.45
      vertex -6 27.65 4
      vertex 4.43339 27.7974 3.45
    endloop
  endfacet
  facet normal -8.91655e-17 0.965926 0.258819
    outer loop
      vertex 4.43339 27.7974 3.45
      vertex -6 27.65 4
      vertex 4.51847 27.65 4
    endloop
  endfacet
endsolid OpenSCAD_Model
